<?xml version="1.0" encoding="UTF-8"?>
<svg xmlns="http://www.w3.org/2000/svg" version="1.1" viewBox="0 0 595.28 841.89">
  <defs>
    <style>
      .cls-1 {
        fill: #16150e;
      }

      .cls-2 {
        fill: #28271a;
      }

      .cls-3, .cls-4, .cls-5 {
        fill: #5ac1d3;
      }

      .cls-6 {
        fill: #010101;
      }

      .cls-7 {
        fill: #2b2917;
      }

      .cls-8 {
        fill: #9a9999;
      }

      .cls-4, .cls-5, .cls-9, .cls-10 {
        stroke-miterlimit: 10;
      }

      .cls-4, .cls-9, .cls-10 {
        stroke: #1d1d1b;
      }

      .cls-11 {
        fill: #d8d10e;
        stroke: #95388c;
      }

      .cls-12 {
        fill: #fff;
      }

      .cls-13 {
        fill: #13130d;
      }

      .cls-5 {
        stroke: #911c81;
      }

      .cls-9 {
        fill: #2fb9d8;
      }

      .cls-14, .cls-10 {
        fill: #e6e120;
      }

      .cls-15 {
        fill: #0e0e08;
      }
    </style>
  </defs>
  <!-- Generator: Adobe Illustrator 28.6.0, SVG Export Plug-In . SVG Version: 1.2.0 Build 709)  -->
  <g>
    <g id="Calque_1">
      <g>
        <path class="cls-9" d="M287.78,387.26"/>
        <path class="cls-4" d="M214.45,469.8"/>
        <path class="cls-3" d="M142.2,483.47c0,2.37-1.52,3.63-3.36,3.62s-3.24-1.42-3.24-3.5c0-2.19,1.43-3.62,3.36-3.61s3.24,1.45,3.24,3.49ZM136.6,483.57c0,1.47.83,2.79,2.3,2.79s2.32-1.29,2.32-2.86c0-1.37-.74-2.8-2.3-2.8s-2.32,1.36-2.32,2.87Z"/>
        <path class="cls-14" d="M233.29,265.57c7.56.4,14.24,6.67,19.1,11.54,4.76,4.77,13.94,16.26,18.77,21.04,12.98-5.53,20.23-16.74,20.22-23.56-.02-13.09-45.3-35.22-84.48-25.51,9.69,4.29,20.04,8.25,26.39,16.49Z"/>
        <path class="cls-14" d="M202.66,314.7c.29-7.74,63.09,4.6,54.98-18.84-3.16-3.41-6.11-7.03-9.27-10.35-4.12-4.34-10.47-12.15-17.44-11.35-1.52.17-3.12-.95-3.85-2.12-6.44-10.26-21.45-13.54-31.83-18.98-4.71,2.08-9.24,4.72-13.48,8.02-30.35,23.59-34.7,71.34-14.11,101.09,4.04,1.16,8.09,2.29,12.1,3.55,4.67,1.47,10.17,2.9,14.31,5.53,3.97,2.52,4.46,7.15,7.47,10.22,4.72.94,9.55,1.37,14.42,1.41,2,.02,3.31,1.07,3.91,2.42,12.62.4,25.71-1.76,37.87-3.48,1.29-.18,2.4.11,3.3.68,22.37-7.43,39.38-19.61,39.85-27.19.95-15.39-98.98-20.34-98.22-40.61Z"/>
        <path class="cls-10" d="M295.52,343.74"/>
        <path class="cls-10" d="M177.03,378.1"/>
        <path class="cls-14" d="M257.55,400.3c.11,2.54-9.37,6.26-20.15,7.02-41.03,2.86-78.43-38.97-77.16-40.53.48-.59,6.02,5.34,21.63,12.87,39.36,19,75.47,15.72,75.68,20.64Z"/>
        <path class="cls-5" d="M388.74,302.48c-14.74-9.07-64.98,107.19-158.18,123.29-69.18,11.96-120.06-38.17-131.33-23.81-12.17,15.51,32.38,92.94,102.52,100.67,53.15,5.86,93.29-31.36,100.02-37.8-9.58,2.72-19.92,3.56-29.63,4.98-1.97.29-5.77-5.06-4.77-7.04.46-.91,1.88-1.11,2.41-1.18,9.17-1.3,38.09-8.07,41.91-10.39.25-.15,1.3-.83,2.62-.72.91.07,1.73.49,2.38,1.1,22.11-21.07,40.57-49.89,53.57-76.61-4.99,3.27-10.17,6.2-13.98,10.89-4.39,5.39-9.15,11.29-11.06,17.94-1.71,5.98-3.45,11.65-9.89,14.21-5.3,2.11-7.58-6.14-2.36-8.22,2.14-.85,2.85-5.48,3.37-7.31.72-2.53,1.42-5.05,2.71-7.39,3.31-6.01,7.79-11.98,12.45-17.09,5.28-5.8,13.02-8.63,18.83-13.81,3.05-2.72,4.66-6.19,6.33-9.77,1.82-3.9,3.87-7.35,6.74-10.64,7.73-21.93,10-38.42,5.33-41.3Z"/>
        <path class="cls-4" d="M243.98,477.55"/>
        <path class="cls-4" d="M283.67,432.11"/>
        <g>
          <path class="cls-11" d="M166.85,554.05c-.28,25.13-18.21,38.28-39.9,38.05-22.45-.23-38.05-15.34-37.8-37.44.26-23.18,17.2-38.18,39.9-37.95,23.21.24,38.04,15.67,37.8,37.33ZM100.88,554.57c-.17,15.6,9.51,29.68,26.78,29.85,17.4.18,27.4-13.48,27.58-30.06.16-14.52-8.5-29.77-26.78-29.96-18.16-.19-27.4,14.13-27.58,30.16Z"/>
          <path class="cls-11" d="M240.84,592.08l-.81-6.62h-.38c-3.45,4.08-10.05,7.69-18.75,7.61-12.36-.13-18.58-7.66-18.5-15.25.14-12.67,13.34-19.47,36.92-19.13v-1.08c.06-4.33-1.24-12.15-13.72-12.27-5.68-.06-11.62,1.4-15.93,3.74l-2.45-6.31c5.08-2.77,12.41-4.53,20.1-4.45,18.66.19,23.08,11.18,22.96,21.69l-.22,19.61c-.05,4.55.15,8.99.87,12.58l-10.09-.1ZM239.5,565.3c-12.1-.34-25.87,1.36-25.99,11.54-.07,6.18,4.69,9.15,10.37,9.21,7.95.08,13.04-4.2,14.85-8.62.39-.97.65-2.05.66-3.03l.1-9.1Z"/>
          <path class="cls-11" d="M293.16,582.86c3.26,1.88,9.04,3.88,14.59,3.94,8.07.08,11.89-3.35,11.94-7.68.05-4.55-3.07-7.07-11.24-9.76-10.93-3.47-16.05-8.72-15.98-15.01.09-8.45,8.12-15.3,21.23-15.17,6.18.06,11.59,1.64,14.97,3.4l-2.85,6.91c-2.38-1.32-6.77-3.1-12.45-3.16-6.56-.07-10.25,3.15-10.29,7.04-.05,4.33,3.59,6.32,11.5,9,10.56,3.57,15.93,8.18,15.84,15.98-.1,9.21-8.5,15.62-23,15.48-6.68-.07-12.85-1.54-17.11-3.75l2.86-7.23Z"/>
          <path class="cls-11" d="M384.35,526.37c.09,3.25-2.71,5.82-7.13,5.78-3.91-.04-6.65-2.67-6.62-5.92.04-3.36,2.97-5.93,7-5.89,4.16.04,6.78,2.67,6.74,6.03ZM371.24,593.41l.59-52.43,11.1.11-.59,52.43-11.1-.11Z"/>
          <path class="cls-11" d="M426.08,584.22c3.26,1.88,9.04,3.88,14.59,3.94,8.07.08,11.89-3.35,11.94-7.68.05-4.55-3.07-7.07-11.24-9.76-10.93-3.47-16.05-8.72-15.98-15.01.1-8.45,8.12-15.3,21.23-15.17,6.18.06,11.59,1.64,14.97,3.4l-2.85,6.9c-2.38-1.32-6.77-3.1-12.45-3.16-6.56-.07-10.25,3.15-10.3,7.04-.05,4.33,3.59,6.32,11.5,9,10.55,3.57,15.93,8.18,15.84,15.98-.1,9.21-8.5,15.62-23,15.48-6.68-.07-12.85-1.54-17.11-3.75l2.86-7.23Z"/>
        </g>
        <g>
          <g>
            <path class="cls-15" d="M320.49,321.48s53.66-63.88,67.66-49.46c0,0,12.99,12.28-58.52,58.74l3.58,17.61-4.98,4.8-12.51-13.91-3.12,1.32-3.17-3.74,1.94-2.6-12.47-13.83,4.63-4.66,16.96,5.74Z"/>
            <path class="cls-6" d="M328.21,353.79l-12.61-14.02-3.13,1.32-3.6-4.25,1.93-2.59-12.51-13.87,5.11-5.14,16.94,5.73c1.53-1.8,11.63-13.6,23.61-25.33,17.45-17.08,30.38-25.88,38.43-26.16,2.53-.08,4.57.67,6.1,2.25.04.04,1.28,1.25,1,4.15-.63,6.56-9.18,22.44-59.36,55.07l3.57,17.55-5.49,5.28ZM315.85,338.74l12.41,13.8,4.47-4.31-3.59-17.66.24-.16c49.89-32.41,58.51-48.05,59.2-54.49.28-2.55-.74-3.58-.75-3.59-1.38-1.42-3.16-2.06-5.42-1.99-18.72.64-61.15,50.9-61.58,51.41l-.2.24-16.99-5.74-4.15,4.18,12.44,13.79-1.94,2.61,2.75,3.24,3.11-1.31Z"/>
          </g>
          <g>
            <path class="cls-2" d="M394.7,361.58l-25.44-60.53-16.36,13.84,37.16,51.16c17.74,25.01,7.14,1.58,4.63-4.47Z"/>
            <path class="cls-6" d="M399.68,377.8c-.83,0-2.81-1.41-9.98-11.52l-37.39-51.47,17.13-14.49,25.67,61.09c.21.5.47,1.12.77,1.83,4.44,10.45,5.42,13.82,4.21,14.44-.11.06-.24.12-.41.12ZM353.49,314.95l36.94,50.85c6.97,9.83,8.79,11.02,9.23,11.11.55-1.22-3.18-10.01-4.6-13.35-.3-.71-.56-1.33-.77-1.83l-25.2-59.97-15.59,13.18Z"/>
          </g>
          <g>
            <path class="cls-1" d="M363.25,334.37s5.77,3.44,13.96-3.62l7.31-6.82-8.53-9.01s-16.02,11.98-12.74,19.45Z"/>
            <path class="cls-6" d="M367.06,335.65c-2.45,0-3.92-.85-4.04-.92l-.12-.07-.06-.12c-3.37-7.67,12.21-19.45,12.87-19.95l.33-.24,9.1,9.61-7.62,7.11c-4.28,3.68-7.91,4.6-10.47,4.59ZM363.61,334.07c.86.44,6.03,2.63,13.31-3.64l6.99-6.52-7.96-8.41c-2.22,1.73-14.96,12.05-12.33,18.56Z"/>
          </g>
          <g>
            <path class="cls-12" d="M384.78,323.41l-8.2-8.76s.93-1.33,2.05-.56c1.12.77,6.34,6.6,6.34,6.6,0,0,.95,1.2-.2,2.71Z"/>
            <path class="cls-6" d="M384.81,324.09l-8.8-9.4.19-.27c.06-.08.59-.82,1.43-.96.43-.07.87.03,1.26.29,1.16.79,6.21,6.43,6.42,6.67.41.52.89,1.84-.18,3.24l-.33.43ZM377.17,314.65l7.53,8.05c.47-.99-.06-1.71-.09-1.74-1.42-1.59-5.36-5.91-6.24-6.51-.2-.13-.38-.18-.57-.15-.24.04-.47.2-.63.36Z"/>
          </g>
          <g>
            <path class="cls-13" d="M296.94,256.21l58.85,29.9-15.19,15.09-48.51-40.76c-23.75-19.5-1.03-7.19,4.86-4.23Z"/>
            <path class="cls-6" d="M340.62,301.79l-.32-.27-48.51-40.76c-10.82-8.88-11.15-10.42-10.61-11.17.77-1.08,4.23.22,14.2,5.33.68.35,1.29.66,1.77.9h0s59.37,30.16,59.37,30.16l-15.9,15.79ZM282.16,250.06c-.12,0-.21.02-.27.05,0,.25.61,1.89,10.49,10.01l48.2,40.49,14.49-14.39-58.33-29.63c-.49-.25-1.09-.56-1.78-.91-3.08-1.58-10.96-5.62-12.8-5.63Z"/>
          </g>
          <g>
            <path class="cls-7" d="M321.82,289.43s-3-5.97,4.73-13.52l7.43-6.69,8.39,9.14s-13.3,14.9-20.54,11.07Z"/>
            <path class="cls-6" d="M324.49,290.49c-1.02,0-1.99-.21-2.88-.68l-.12-.07-.06-.12c-.13-.25-3.05-6.33,4.81-14l7.78-7.01,8.95,9.75-.25.28c-.49.55-10.69,11.86-18.22,11.85ZM322.17,289.13c6.34,3.11,17.76-8.77,19.6-10.76l-7.82-8.53-7.09,6.39c-6.88,6.71-5.06,12.02-4.69,12.9Z"/>
          </g>
          <g>
            <path class="cls-12" d="M334.52,269.01l8.16,8.79s1.41-.81.72-1.98c-.68-1.17-6.14-6.79-6.14-6.79,0,0-1.13-1.04-2.74-.02Z"/>
            <path class="cls-6" d="M342.6,278.35l-8.75-9.42.43-.27c1.52-.96,2.82-.38,3.3.07.24.25,5.52,5.69,6.22,6.89.71,1.21-.27,2.2-.88,2.56l-.32.18ZM335.23,269.13l7.51,8.09c.27-.24.58-.67.28-1.2-.54-.93-4.57-5.16-6.08-6.71-.06-.05-.71-.58-1.71-.19Z"/>
          </g>
          <g>
            <path class="cls-8" d="M374.84,275.15s5.68-2.83,8.67,1.37c2.99,4.2-.39,7.53-.39,7.53,0,0,1.28-8.49-8.28-8.9Z"/>
            <path class="cls-6" d="M382.49,285.29l.19-1.3s.49-3.47-1.64-5.92c-1.34-1.54-3.43-2.38-6.22-2.5l-1.66-.07,1.47-.73c.06-.03,6.07-2.95,9.25,1.51,3.16,4.44-.4,8.03-.44,8.06l-.95.94ZM376.74,274.92c2.14.38,3.82,1.25,5,2.61,1.47,1.69,1.83,3.74,1.89,5.1.69-1.24,1.3-3.38-.48-5.87-1.79-2.51-4.61-2.31-6.41-1.84Z"/>
          </g>
          <g>
            <path class="cls-8" d="M318.37,334.7c-6.04,5.13-11.49,8.65-12.19,7.85-.69-.8,3.64-5.61,9.68-10.74,6.04-5.14,11.5-8.65,12.19-7.85.69.8-3.64,5.61-9.68,10.75Z"/>
            <path class="cls-6" d="M306.49,343.08s-.05,0-.08,0c-.31-.02-.48-.16-.58-.26-1.49-1.71,8.57-10.35,9.72-11.33,4.67-3.98,10.49-8.22,12.25-8.07.31.02.48.16.58.26,1.49,1.71-8.57,10.36-9.73,11.34h0c-4.61,3.92-10.34,8.07-12.17,8.07ZM327.67,324.26c-.98,0-5.44,2.69-11.52,7.86-6.14,5.23-9.48,9.19-9.6,10.12.98,0,5.44-2.69,11.52-7.86h0c6.14-5.22,9.48-9.19,9.6-10.12Z"/>
          </g>
        </g>
      </g>
    </g>
  </g>
</svg>